# xmcd
#
# Track frame offsets: 
#        150
#        13580
#        30597
#        44821
#        69661
#        76257
#        93532
#        106871
#        118371
#        135277
#        150832
#
# Disc length: 2104 seconds
#
# Revision: 0
# Processed by: cddbd v1.5.2PL0 Copyright (c) Steve Scherf et al.
# Submitted via: ExactAudioCopy v0.99pb5
#
DISCID=8508360b
DTITLE=Neil Young  - After The Gold Rush (HDCD Remaster)  FLAC
DYEAR=1900
DGENRE=
TTITLE0=Tell Me Why
TTITLE1=After The Gold Rush
TTITLE2=Only Love Can Break Your Heart
TTITLE3=Southern Man
TTITLE4=Till the Morning Comes
TTITLE5=Oh, Lonesome Me
TTITLE6=Don't Let It Bring You Down
TTITLE7=Birds
TTITLE8=When You Dance I Can Really Love
TTITLE9=I Believe in You
TTITLE10=Cripple Creek Ferry
EXTD=
EXTT0=
EXTT1=
EXTT2=
EXTT3=
EXTT4=
EXTT5=
EXTT6=
EXTT7=
EXTT8=
EXTT9=
EXTT10=
PLAYORDER=
